<mxfile host="app.diagrams.net" modified="2023-03-30T09:02:37.279Z" agent="Mozilla/5.0 (Windows NT 10.0; Win64; x64) AppleWebKit/537.36 (KHTML, like Gecko) Chrome/111.0.0.0 Safari/537.36" etag="58kUT8f2UxwW3oXX9Oa8" version="21.1.1" type="github">
  <diagram name="Page-1" id="12e1b939-464a-85fe-373e-61e167be1490">
    <mxGraphModel dx="1400" dy="721" grid="1" gridSize="10" guides="1" tooltips="1" connect="1" arrows="1" fold="1" page="1" pageScale="1.5" pageWidth="1169" pageHeight="826" background="none" math="0" shadow="0">
      <root>
        <mxCell id="0" />
        <mxCell id="1" parent="0" />
        <mxCell id="YSoAW5_WRrQaYXD2AETo-1" value="empresas" style="rounded=1;whiteSpace=wrap;html=1;fontSize=19;" vertex="1" parent="1">
          <mxGeometry x="600" y="200" width="120" height="200" as="geometry" />
        </mxCell>
        <mxCell id="YSoAW5_WRrQaYXD2AETo-2" value="&lt;font style=&quot;font-size: 17px;&quot;&gt;persona que quiere tener autoridad en las redes&amp;nbsp;&lt;/font&gt;" style="rounded=1;whiteSpace=wrap;html=1;" vertex="1" parent="1">
          <mxGeometry x="810" y="200" width="120" height="200" as="geometry" />
        </mxCell>
        <mxCell id="YSoAW5_WRrQaYXD2AETo-3" value="&lt;font style=&quot;font-size: 17px;&quot;&gt;marketing profesional&lt;/font&gt;" style="rounded=1;whiteSpace=wrap;html=1;" vertex="1" parent="1">
          <mxGeometry x="430" y="200" width="120" height="200" as="geometry" />
        </mxCell>
        <mxCell id="YSoAW5_WRrQaYXD2AETo-4" value="creadores de contenidos normales" style="rounded=1;whiteSpace=wrap;html=1;fontSize=20;" vertex="1" parent="1">
          <mxGeometry x="990" y="200" width="120" height="200" as="geometry" />
        </mxCell>
        <mxCell id="YSoAW5_WRrQaYXD2AETo-10" style="edgeStyle=orthogonalEdgeStyle;rounded=0;orthogonalLoop=1;jettySize=auto;html=1;entryX=0.5;entryY=1;entryDx=0;entryDy=0;" edge="1" parent="1" source="YSoAW5_WRrQaYXD2AETo-6" target="YSoAW5_WRrQaYXD2AETo-2">
          <mxGeometry relative="1" as="geometry" />
        </mxCell>
        <mxCell id="YSoAW5_WRrQaYXD2AETo-11" style="edgeStyle=orthogonalEdgeStyle;rounded=0;orthogonalLoop=1;jettySize=auto;html=1;entryX=0.5;entryY=1;entryDx=0;entryDy=0;" edge="1" parent="1" source="YSoAW5_WRrQaYXD2AETo-6" target="YSoAW5_WRrQaYXD2AETo-4">
          <mxGeometry relative="1" as="geometry" />
        </mxCell>
        <mxCell id="YSoAW5_WRrQaYXD2AETo-13" style="edgeStyle=orthogonalEdgeStyle;rounded=0;orthogonalLoop=1;jettySize=auto;html=1;entryX=0.5;entryY=1;entryDx=0;entryDy=0;" edge="1" parent="1" source="YSoAW5_WRrQaYXD2AETo-6" target="YSoAW5_WRrQaYXD2AETo-12">
          <mxGeometry relative="1" as="geometry" />
        </mxCell>
        <mxCell id="YSoAW5_WRrQaYXD2AETo-6" value="Producto que vendemos" style="rounded=1;whiteSpace=wrap;html=1;fontSize=20;" vertex="1" parent="1">
          <mxGeometry x="650" y="570" width="240" height="140" as="geometry" />
        </mxCell>
        <mxCell id="YSoAW5_WRrQaYXD2AETo-12" value="usuarios de la Beta" style="rounded=1;whiteSpace=wrap;html=1;fontSize=20;" vertex="1" parent="1">
          <mxGeometry x="1170" y="200" width="120" height="200" as="geometry" />
        </mxCell>
      </root>
    </mxGraphModel>
  </diagram>
</mxfile>
